<svg width="258" height="25" viewBox="0 0 258 25" fill="none" xmlns="http://www.w3.org/2000/svg">
<g id="Vector">
<path d="M46.2425 23.8444C44.6971 23.8444 43.3063 23.5778 42.0701 23.0444C40.8338 22.4889 39.8624 21.7111 39.156 20.7111C38.4496 19.7111 38.0963 18.5444 38.0963 17.2111H42.1363C42.2246 18.2111 42.6109 19.0333 43.2953 19.6778C44.0017 20.3222 44.9841 20.6444 46.2425 20.6444C47.545 20.6444 48.5605 20.3333 49.289 19.7111C50.0175 19.0667 50.3818 18.2444 50.3818 17.2444C50.3818 16.4667 50.15 15.8333 49.6864 15.3444C49.2448 14.8556 48.6819 14.4778 47.9975 14.2111C47.3353 13.9444 46.4081 13.6556 45.2159 13.3444C43.7147 12.9444 42.4895 12.5444 41.5402 12.1444C40.613 11.7222 39.8183 11.0778 39.156 10.2111C38.4937 9.34444 38.1626 8.18889 38.1626 6.74444C38.1626 5.41111 38.4937 4.24444 39.156 3.24444C39.8183 2.24444 40.7455 1.47778 41.9376 0.944445C43.1297 0.41111 44.5095 0.144442 46.0769 0.144442C48.3066 0.144442 50.1279 0.71111 51.5408 1.84444C52.9757 2.95555 53.7705 4.48889 53.925 6.44444H49.7526C49.6864 5.6 49.289 4.87778 48.5605 4.27778C47.832 3.67778 46.8717 3.37778 45.6795 3.37778C44.5978 3.37778 43.7147 3.65555 43.0304 4.21111C42.346 4.76667 42.0038 5.56666 42.0038 6.61111C42.0038 7.32222 42.2136 7.91111 42.633 8.37778C43.0745 8.82222 43.6264 9.17778 44.2887 9.44444C44.951 9.71111 45.8561 10 47.0041 10.3111C48.5274 10.7333 49.7636 11.1556 50.7129 11.5778C51.6843 12 52.5011 12.6556 53.1634 13.5444C53.8477 14.4111 54.1899 15.5778 54.1899 17.0444C54.1899 18.2222 53.8698 19.3333 53.2296 20.3778C52.6115 21.4222 51.6953 22.2667 50.4811 22.9111C49.289 23.5333 47.8761 23.8444 46.2425 23.8444Z" fill="white"/>
<path d="M72.5192 18.8778H62.883L61.2272 23.6111H57.2866L65.5321 0.41111H69.9032L78.1487 23.6111H74.175L72.5192 18.8778ZM71.4596 15.7778L67.7177 5.01111L63.9426 15.7778H71.4596Z" fill="white"/>
<path d="M105.974 0.444443V23.6111H102.199V7.74444L95.1783 23.6111H92.5622L85.5089 7.74444V23.6111H81.7338V0.444443H85.8069L93.8868 18.6111L101.934 0.444443H105.974Z" fill="white"/>
<path d="M118.764 11.9778C118.764 9.71111 119.283 7.67778 120.32 5.87778C121.38 4.07778 122.804 2.67778 124.592 1.67778C126.402 0.655553 128.378 0.144442 130.52 0.144442C132.97 0.144442 135.145 0.755554 137.043 1.97778C138.964 3.17778 140.355 4.88889 141.215 7.11111H136.679C136.083 5.88889 135.255 4.97778 134.195 4.37778C133.136 3.77778 131.91 3.47778 130.52 3.47778C128.996 3.47778 127.639 3.82222 126.446 4.51111C125.254 5.2 124.316 6.18889 123.632 7.47778C122.969 8.76666 122.638 10.2667 122.638 11.9778C122.638 13.6889 122.969 15.1889 123.632 16.4778C124.316 17.7667 125.254 18.7667 126.446 19.4778C127.639 20.1667 128.996 20.5111 130.52 20.5111C131.91 20.5111 133.136 20.2111 134.195 19.6111C135.255 19.0111 136.083 18.1 136.679 16.8778H141.215C140.355 19.1 138.964 20.8111 137.043 22.0111C135.145 23.2111 132.97 23.8111 130.52 23.8111C128.356 23.8111 126.38 23.3111 124.592 22.3111C122.804 21.2889 121.38 19.8778 120.32 18.0778C119.283 16.2778 118.764 14.2444 118.764 11.9778Z" fill="white"/>
<path d="M164.013 0.444443V23.6111H160.238V13.4778H149.409V23.6111H145.634V0.444443H149.409V10.3778H160.238V0.444443H164.013Z" fill="white"/>
<path d="M172.757 3.51111V10.3111H180.705V13.4111H172.757V20.5111H181.698V23.6111H168.982V0.41111H181.698V3.51111H172.757Z" fill="white"/>
<path d="M198.302 23.6111L193.004 14.3444H190.123V23.6111H186.348V0.444443H194.295C196.062 0.444443 197.552 0.755554 198.766 1.37778C200.002 2 200.918 2.83333 201.514 3.87778C202.133 4.92222 202.442 6.08889 202.442 7.37778C202.442 8.88889 202 10.2667 201.117 11.5111C200.256 12.7333 198.92 13.5667 197.11 14.0111L202.806 23.6111H198.302ZM190.123 11.3111H194.295C195.708 11.3111 196.768 10.9556 197.474 10.2444C198.203 9.53333 198.567 8.57778 198.567 7.37778C198.567 6.17778 198.214 5.24444 197.508 4.57778C196.801 3.88889 195.73 3.54444 194.295 3.54444H190.123V11.3111Z" fill="white"/>
<path d="M211.046 0.444443V23.6111H207.271V0.444443H211.046Z" fill="white"/>
<path d="M229.877 18.8778H220.241L218.585 23.6111H214.645L222.89 0.41111H227.261L235.507 23.6111H231.533L229.877 18.8778ZM228.817 15.7778L225.076 5.01111L221.3 15.7778H228.817Z" fill="white"/>
<path d="M258 23.6111H254.225L242.867 6.31111V23.6111H239.092V0.41111H242.867L254.225 17.6778V0.41111H258V23.6111Z" fill="white"/>
<path d="M13.2691 12.6389C13.2691 11.3037 13.5653 10.1111 14.1577 9.06111C14.763 7.99815 15.5807 7.175 16.6109 6.59167C17.654 5.99537 18.8195 5.69722 20.1072 5.69722C21.614 5.69722 22.9339 6.08611 24.0672 6.86389C25.2004 7.64167 25.9924 8.71759 26.4431 10.0917H23.3331C23.0241 9.44352 22.5862 8.95741 22.0196 8.63333C21.4659 8.30926 20.822 8.14722 20.0879 8.14722C19.3024 8.14722 18.6005 8.33518 17.9824 8.71111C17.3772 9.07407 16.9007 9.59259 16.553 10.2667C16.2182 10.9407 16.0507 11.7315 16.0507 12.6389C16.0507 13.5333 16.2182 14.3241 16.553 15.0111C16.9007 15.6852 17.3772 16.2102 17.9824 16.5861C18.6005 16.9491 19.3024 17.1306 20.0879 17.1306C20.822 17.1306 21.4659 16.9685 22.0196 16.6444C22.5862 16.3074 23.0241 15.8148 23.3331 15.1667H26.4431C25.9924 16.5537 25.2004 17.6361 24.0672 18.4139C22.9468 19.1787 21.6268 19.5611 20.1072 19.5611C18.8195 19.5611 17.654 19.2694 16.6109 18.6861C15.5807 18.0898 14.763 17.2667 14.1577 16.2167C13.5653 15.1667 13.2691 13.9741 13.2691 12.6389Z" fill="white"/>
<path d="M9.07109 19.5806C8.13101 19.5806 7.28108 19.4185 6.52129 19.0944C5.77437 18.7704 5.18199 18.3037 4.74415 17.6944C4.3063 17.0852 4.08094 16.3657 4.06806 15.5361H6.96557C7.0042 16.0935 7.19737 16.5343 7.54507 16.8583C7.90565 17.1824 8.39501 17.3444 9.01314 17.3444C9.64415 17.3444 10.1399 17.1954 10.5005 16.8972C10.8611 16.5861 11.0414 16.1843 11.0414 15.6917C11.0414 15.2898 10.9191 14.9593 10.6744 14.7C10.4297 14.4407 10.1206 14.2398 9.74718 14.0972C9.3866 13.9417 8.88436 13.7731 8.24047 13.5917C7.36478 13.3324 6.65006 13.0796 6.09632 12.8333C5.55545 12.5741 5.08541 12.1917 4.6862 11.6861C4.29987 11.1676 4.1067 10.4806 4.1067 9.625C4.1067 8.8213 4.3063 8.1213 4.70552 7.525C5.10473 6.9287 5.66491 6.475 6.38607 6.16389C7.10723 5.83981 7.93141 5.67778 8.85861 5.67778C10.2494 5.67778 11.3762 6.0213 12.239 6.70833C13.1147 7.38241 13.5976 8.3287 13.6878 9.54722H10.713C10.6873 9.08056 10.4877 8.69815 10.1142 8.4C9.75362 8.08889 9.2707 7.93333 8.66544 7.93333C8.13745 7.93333 7.71248 8.06945 7.39054 8.34167C7.08147 8.61389 6.92694 9.00926 6.92694 9.52778C6.92694 9.89074 7.04284 10.1954 7.27464 10.4417C7.51932 10.675 7.81551 10.8694 8.16321 11.025C8.52379 11.1676 9.02602 11.3361 9.66991 11.5306C10.5456 11.7898 11.2603 12.0491 11.8141 12.3083C12.3678 12.5676 12.8443 12.9565 13.2435 13.475C13.6427 13.9935 13.8423 14.6741 13.8423 15.5167C13.8423 16.2426 13.6556 16.9167 13.2821 17.5389C12.9087 18.1611 12.3614 18.6602 11.6402 19.0361C10.9191 19.3991 10.0627 19.5806 9.07109 19.5806Z" fill="white"/>
<path d="M1.37976 0H27.5953V2.77778H1.37976V0Z" fill="white"/>
<path d="M28.9751 1.38889C28.9751 2.15595 28.3573 2.77778 27.5953 2.77778C26.8333 2.77778 26.2155 2.15595 26.2155 1.38889C26.2155 0.621827 26.8333 0 27.5953 0C28.3573 0 28.9751 0.621827 28.9751 1.38889Z" fill="white"/>
<path d="M2.75953 1.38889C2.75953 2.15595 2.14179 2.77778 1.37976 2.77778C0.617742 2.77778 0 2.15595 0 1.38889C0 0.621827 0.617742 0 1.37976 0C2.14179 0 2.75953 0.621827 2.75953 1.38889Z" fill="white"/>
<path d="M1.37976 22.2222H27.5953V25H1.37976V22.2222Z" fill="white"/>
<path d="M28.9751 23.6111C28.9751 24.3782 28.3573 25 27.5953 25C26.8333 25 26.2155 24.3782 26.2155 23.6111C26.2155 22.844 26.8333 22.2222 27.5953 22.2222C28.3573 22.2222 28.9751 22.844 28.9751 23.6111Z" fill="white"/>
<path d="M2.75953 23.6111C2.75953 24.3782 2.14179 25 1.37976 25C0.617742 25 0 24.3782 0 23.6111C0 22.844 0.617742 22.2222 1.37976 22.2222C2.14179 22.2222 2.75953 22.844 2.75953 23.6111Z" fill="white"/>
</g>
</svg>
