<svg width="44" height="38" viewBox="0 0 44 38" fill="none" xmlns="http://www.w3.org/2000/svg">
<g id="Vector">
<path d="M20.1498 19.2111C20.1498 17.1816 20.5996 15.3689 21.4991 13.7729C22.4183 12.1572 23.66 10.906 25.2245 10.0193C26.8085 9.11296 28.5783 8.65978 30.5338 8.65978C32.8218 8.65978 34.8263 9.25089 36.5471 10.4331C38.268 11.6153 39.4707 13.2507 40.1551 15.3393H35.4325C34.9631 14.3541 34.2983 13.6153 33.4378 13.1227C32.5969 12.6301 31.6191 12.3838 30.5045 12.3838C29.3116 12.3838 28.2458 12.6695 27.3071 13.2409C26.388 13.7926 25.6645 14.5807 25.1365 15.6053C24.628 16.6299 24.3738 17.8319 24.3738 19.2111C24.3738 20.5707 24.628 21.7726 25.1365 22.8169C25.6645 23.8415 26.388 24.6395 27.3071 25.2109C28.2458 25.7626 29.3116 26.0384 30.5045 26.0384C31.6191 26.0384 32.5969 25.7921 33.4378 25.2996C34.2983 24.7873 34.9631 24.0385 35.4325 23.0533H40.1551C39.4707 25.1616 38.268 26.8069 36.5471 27.9891C34.8458 29.1516 32.8414 29.7329 30.5338 29.7329C28.5783 29.7329 26.8085 29.2896 25.2245 28.4029C23.66 27.4965 22.4183 26.2453 21.4991 24.6493C20.5996 23.0533 20.1498 21.2406 20.1498 19.2111Z" fill="white"/>
<path d="M13.7749 29.7624C12.3473 29.7624 11.0567 29.5161 9.90288 29.0236C8.76866 28.531 7.8691 27.8216 7.20421 26.8956C6.53933 25.9695 6.1971 24.8759 6.17755 23.6149H10.5775C10.6362 24.4621 10.9295 25.1321 11.4575 25.6247C12.0051 26.1173 12.7482 26.3636 13.6869 26.3636C14.6451 26.3636 15.398 26.137 15.9455 25.6838C16.4931 25.2109 16.7669 24.6001 16.7669 23.8513C16.7669 23.2405 16.5811 22.7381 16.2095 22.344C15.838 21.9499 15.3687 21.6445 14.8015 21.4278C14.254 21.1913 13.4913 20.9352 12.5135 20.6593C11.1838 20.2653 10.0984 19.881 9.25755 19.5067C8.43621 19.1126 7.72244 18.5313 7.11622 17.7629C6.52955 16.9747 6.23621 15.9304 6.23621 14.63C6.23621 13.4084 6.53933 12.3444 7.14555 11.438C7.75177 10.5316 8.60244 9.842 9.69755 9.36911C10.7927 8.87652 12.0442 8.63022 13.4522 8.63022C15.5642 8.63022 17.2753 9.15237 18.5855 10.1967C19.9153 11.2213 20.6487 12.6596 20.7856 14.5118H16.2682C16.2291 13.8024 15.926 13.2212 15.3589 12.768C14.8113 12.2951 14.078 12.0587 13.1589 12.0587C12.3571 12.0587 11.7118 12.2656 11.2229 12.6793C10.7535 13.0931 10.5189 13.6941 10.5189 14.4822C10.5189 15.0339 10.6949 15.497 11.0469 15.8713C11.4184 16.226 11.8682 16.5216 12.3962 16.758C12.9438 16.9747 13.7064 17.2309 14.6842 17.5264C16.014 17.9205 17.0993 18.3146 17.9402 18.7087C18.7811 19.1027 19.5047 19.6939 20.1109 20.482C20.7171 21.2701 21.0202 22.3046 21.0202 23.5853C21.0202 24.6887 20.7367 25.7133 20.1695 26.6591C19.6024 27.6049 18.7713 28.3635 17.6762 28.9349C16.5811 29.4866 15.2807 29.7624 13.7749 29.7624Z" fill="white"/>
<path d="M2.09524 0H41.9048V4.22222H2.09524V0Z" fill="white"/>
<path d="M44 2.11111C44 3.27705 43.0619 4.22222 41.9048 4.22222C40.7476 4.22222 39.8095 3.27705 39.8095 2.11111C39.8095 0.945177 40.7476 0 41.9048 0C43.0619 0 44 0.945177 44 2.11111Z" fill="white"/>
<path d="M4.19048 2.11111C4.19048 3.27705 3.25241 4.22222 2.09524 4.22222C0.93807 4.22222 0 3.27705 0 2.11111C0 0.945177 0.93807 0 2.09524 0C3.25241 0 4.19048 0.945177 4.19048 2.11111Z" fill="white"/>
<path d="M2.09524 33.7778H41.9048V38H2.09524V33.7778Z" fill="white"/>
<path d="M44 35.8889C44 37.0548 43.0619 38 41.9048 38C40.7476 38 39.8095 37.0548 39.8095 35.8889C39.8095 34.723 40.7476 33.7778 41.9048 33.7778C43.0619 33.7778 44 34.723 44 35.8889Z" fill="white"/>
<path d="M4.19048 35.8889C4.19048 37.0548 3.25241 38 2.09524 38C0.93807 38 0 37.0548 0 35.8889C0 34.723 0.93807 33.7778 2.09524 33.7778C3.25241 33.7778 4.19048 34.723 4.19048 35.8889Z" fill="white"/>
</g>
</svg>
